<?xml version="1.0" standalone="no"?>
<!DOCTYPE svg PUBLIC "-//W3C//DTD SVG 20010904//EN"
 "http://www.w3.org/TR/2001/REC-SVG-20010904/DTD/svg10.dtd">
<svg version="1.0" xmlns="http://www.w3.org/2000/svg"
 width="149.000000pt" height="149.000000pt" viewBox="0 0 149.000000 149.000000"
 preserveAspectRatio="xMidYMid meet">
<metadata>
Created by potrace 1.11, written by Peter Selinger 2001-2013
</metadata>
<g transform="translate(0.000000,149.000000) scale(0.100000,-0.100000)"
fill="#000000" stroke="none">
<path d="M690 1393 c-19 -2 -63 -13 -98 -24 -53 -18 -79 -36 -170 -119 -60
-54 -116 -110 -126 -125 -26 -39 -15 -105 30 -177 33 -54 35 -62 29 -115 -5
-46 -2 -66 13 -95 l19 -36 -24 9 c-51 19 -70 33 -128 95 -56 59 -64 64 -102
64 -42 0 -73 -25 -73 -58 0 -8 -11 -27 -25 -44 -49 -58 -26 -168 36 -168 11 0
43 10 70 21 l50 22 139 -69 c95 -46 140 -73 140 -84 0 -11 -37 -34 -110 -69
-90 -44 -115 -52 -142 -47 -18 4 -58 9 -88 12 -123 12 -170 -86 -68 -141 29
-15 39 -28 47 -62 26 -103 147 -93 179 16 15 48 36 64 169 124 l102 47 61 -29
c103 -49 127 -49 215 -3 l76 40 122 -58 c131 -62 148 -75 166 -132 33 -103
161 -101 177 1 5 31 13 41 40 54 18 9 41 28 50 43 16 24 16 29 3 53 -28 50
-85 60 -206 35 -25 -5 -54 5 -148 49 -64 30 -117 59 -118 63 -1 5 64 42 145
83 l147 74 56 -21 c31 -12 65 -22 74 -22 54 0 71 109 26 170 -14 19 -25 41
-25 50 0 33 -36 53 -82 47 -36 -5 -51 -15 -98 -66 -36 -39 -76 -70 -117 -90
l-62 -31 25 38 c23 33 26 44 21 107 -4 58 -1 75 14 97 51 71 72 156 49 198 -5
10 -57 61 -115 114 -147 133 -236 171 -365 159z m188 -78 c29 -15 99 -71 157
-122 105 -94 116 -112 99 -157 -10 -26 -24 -18 -24 13 0 17 -11 43 -26 61 -24
28 -29 30 -42 16 -13 -13 -12 -18 7 -42 23 -29 28 -85 12 -139 -4 -17 -4 -58
2 -96 14 -91 2 -111 -100 -174 -45 -27 -85 -53 -89 -58 -4 -4 -10 -26 -13 -49
-8 -54 -49 -81 -126 -81 -76 0 -116 26 -130 83 -9 40 -17 49 -75 87 -114 73
-130 89 -130 137 0 22 4 55 9 72 6 21 5 50 -3 85 -14 63 -7 111 23 143 24 26
27 42 7 49 -22 9 -68 -48 -81 -100 l-13 -48 -11 42 c-15 55 -10 63 120 181 84
76 112 95 163 112 89 29 194 23 264 -15z m-703 -502 c88 -105 94 -109 194
-153 93 -41 101 -47 101 -72 0 -16 -2 -28 -4 -28 -3 0 -60 27 -127 60 -130 64
-150 68 -206 45 -19 -8 -46 -15 -59 -15 -21 0 -24 5 -23 33 0 17 3 26 6 20 7
-18 30 -16 37 3 3 9 6 37 6 63 0 26 3 51 7 54 13 13 53 7 68 -10z m1201 5 c5
-7 8 -38 9 -68 0 -50 2 -55 23 -54 17 0 22 -5 22 -23 0 -19 -5 -23 -27 -23
-16 1 -39 7 -53 15 -43 25 -77 17 -210 -50 -71 -36 -135 -65 -141 -65 -5 0 -9
12 -7 27 3 23 17 34 116 82 91 45 123 67 166 114 52 56 86 71 102 45z m-815
-268 c7 -49 30 -71 98 -95 57 -19 96 -19 154 1 51 17 102 68 92 92 -6 16 20
62 35 62 6 0 10 -26 10 -59 0 -44 -6 -66 -23 -92 -28 -41 -123 -99 -175 -106
-55 -7 -150 36 -202 93 -38 42 -40 46 -40 110 l0 66 23 -14 c15 -11 24 -29 28
-58z m-41 -141 c0 -4 -51 -33 -113 -62 -111 -53 -157 -91 -157 -130 0 -23 -40
-67 -60 -67 -25 0 -33 13 -50 95 -11 51 -20 71 -32 73 -13 2 -18 -3 -18 -18 0
-25 -18 -23 -34 4 -9 13 -7 20 9 32 20 15 25 15 150 -1 46 -6 59 -3 165 48 81
38 119 51 128 44 6 -5 12 -13 12 -18z m577 -25 c127 -60 117 -58 258 -38 31 4
46 1 64 -13 23 -18 23 -20 5 -37 -17 -18 -18 -18 -26 3 -10 28 -36 27 -43 -2
-3 -12 -10 -44 -15 -72 -12 -56 -25 -75 -50 -75 -22 0 -45 27 -59 71 -16 51
-42 71 -166 130 -61 29 -111 53 -113 54 -5 4 10 35 18 35 5 0 62 -25 127 -56z"/>
<path d="M528 893 c-76 -4 -78 -5 -78 -29 0 -33 24 -79 52 -98 40 -28 77 -20
120 24 46 49 51 86 12 100 -14 6 -26 9 -27 8 -1 -1 -37 -4 -79 -5z"/>
<path d="M898 890 c-47 -3 -90 -8 -93 -12 -27 -27 54 -128 101 -128 53 0 104
56 104 113 0 32 -7 33 -112 27z"/>
<path d="M706 708 c-24 -38 -49 -107 -43 -122 4 -10 24 -13 79 -11 40 1 76 3
81 4 13 2 8 23 -23 88 -25 52 -34 63 -55 63 -14 0 -30 -9 -39 -22z"/>
</g>
</svg>
